# xmcd
#
# Track frame offsets:
#	150
#	36230
#	79315
#	108632
#	131457
#	147018
#	164247
#	169217
#	202248
#	228139
#	244969
#
# Disc length: 3689 seconds
#
# Revision: 0
# Processed by: cddbd v1.5.1PL2 Copyright (c) Steve Scherf et al.
# Submitted via: dBpowerAMP V4.0
#
DISCID=a10e670b
DTITLE=Eric D. Wortham II - When I Became Myself
DYEAR=1900
DGENRE=Gospel
TTITLE0=Streets of Gold
TTITLE1=I Dream of Heaven
TTITLE2=Oh How He Loves You and Me
TTITLE3=Wade in the Water
TTITLE4=Will Celebrate:  Intro
TTITLE5=I Will Celebrate
TTITLE6=Oh Magnify the Lord
TTITLE7=God is an Awesome God
TTITLE8=When I became Myself
TTITLE9=Is There Anybody Here
TTITLE10=Oh We Sing Glory
EXTD=
EXTT0=
EXTT1=
EXTT2=
EXTT3=
EXTT4=
EXTT5=
EXTT6=
EXTT7=
EXTT8=
EXTT9=
EXTT10=
PLAYORDER=
